<?xml version="1.0" encoding="UTF-8"?>
<svg id="Layer_2" data-name="Layer 2" xmlns="http://www.w3.org/2000/svg" viewBox="0 0 455 354.86">
  <defs>
    <style>
      .cls-1 {
        fill: #37363f;
      }

      .cls-2 {
        fill: #fff;
      }

      .cls-3 {
        fill: #52517a;
      }

      .cls-4 {
        fill: #232353;
      }

      .cls-5 {
        fill: #141d3d;
      }
    </style>
  </defs>
  <g id="Layer_1-2" data-name="Layer 1">
    <g>
      <path class="cls-3" d="M234.07,0l-85.97,41,.13,107.92,58.65,28.85,27.12-13.42,27.25,13.42,58.03-27.91V40.68L234.07,0ZM221.88,155.9l-1.27.67-48.11-23.17v-61.88l1.28-.67,48.1,23.8v61.25ZM186.88,49.64l47.19-22.22,45.31,21.3-1.44,1.36-43.86,22.14-47.2-22.58ZM295,134.33l-48.75,22.5v-62.81l48.75-24.69v65Z"/>
      <path class="cls-5" d="M261.25,177.77l-27.18,14.74,45.3,21.21-45.35,23.11-46.51-22.19,46.56-22.13-27.19-14.74-58.65,27.91-.13,108.86,85.51,40.31c1.83.23,9.84-3.87,12.24-4.98,21.07-9.75,42.33-19.7,63.13-30,1.77-.87,10.58-4.94,10.92-5.95v-108.24l-58.65-27.91ZM221.25,321.21l-48.12-21.88v-63.12l48.12,22.81v62.19ZM295,298.4l-48.75,23.43v-62.81l48.75-24.69v64.07Z"/>
      <path class="cls-1" d="M343.75,190.27c.62-.8,1.44-1.07,2.35-1.4,6.6-2.36,14.55-3.68,21.34-5.74l62.56,102.45v-96.25h25v141.25l-23.12,5.97-63.13-102.22v96.25h-24.06l-.94-.94v-139.38Z"/>
      <path class="cls-1" d="M343.75,168.71V21.21h74.69l36.24,30.64.2,85.17-36.43,31.69h-74.69ZM368.75,143.71h40.94l19.99-17.51.21-62.68-20.2-17.3h-40.94v97.5Z"/>
      <path class="cls-1" d="M98.75,330.58v-101.25l-4.7,4.37-22.31,26.12-18.95.18-27.79-31.3v101.25H0v-134.06c5.35-2.6,11.62-5.15,17.34-7.03,1.34-.44,4.05-1.82,5.15-1.12l39.16,44.67,39.62-44.67,1.87-.05,20.61,8.2v133.75l-.94.94h-24.06Z"/>
      <polygon class="cls-1" points="0 34.02 22.4 25.67 61.53 70.61 99.38 25.86 121.88 34.02 121.88 168.71 96.88 168.71 96.88 67.46 70.61 97.76 51.26 97.76 25 67.46 25 168.08 0 168.08 0 34.02"/>
      <polygon class="cls-2" points="368.75 143.71 368.75 46.21 409.69 46.21 429.88 63.51 429.68 126.2 409.69 143.71 368.75 143.71"/>
      <polygon class="cls-2" points="206.88 177.77 234.06 192.51 261.25 177.77 234 164.35 206.88 177.77"/>
      <polygon class="cls-4" points="206.88 177.77 234 164.35 261.25 177.77 234.06 192.51 206.88 177.77"/>
    </g>
  </g>
</svg>